<svg xmlns="http://www.w3.org/2000/svg" viewBox="0 0 557 594" width="557" height="594" fill="none">
  <path d="
    M 418.0 500.0 L 418.0 584.0 L 439.0 584.0 L 439.0 500.0 Z
    M 464.0 506.0 L 465.0 515.0 L 470.0 514.0 L 473.0 512.0 L 475.0 512.0 L 479.0 510.0 L 489.0 509.0 L 490.0 508.0 L 497.0 508.0 L 498.0 509.0 L 505.0 510.0 L 509.0 512.0 L 514.0 518.0 L 515.0 524.0 L 516.0 525.0 L 516.0 531.0 L 514.0 533.0 L 512.0 532.0 L 497.0 532.0 L 496.0 533.0 L 485.0 533.0 L 484.0 534.0 L 480.0 534.0 L 468.0 539.0 L 459.0 547.0 L 456.0 554.0 L 455.0 562.0 L 456.0 563.0 L 456.0 568.0 L 459.0 574.0 L 464.0 579.0 L 471.0 583.0 L 473.0 583.0 L 477.0 585.0 L 493.0 585.0 L 494.0 584.0 L 498.0 584.0 L 501.0 582.0 L 505.0 581.0 L 517.0 572.0 L 520.0 578.0 L 527.0 584.0 L 529.0 584.0 L 530.0 585.0 L 543.0 585.0 L 544.0 584.0 L 549.0 584.0 L 549.0 575.0 L 543.0 575.0 L 539.0 570.0 L 539.0 567.0 L 538.0 566.0 L 538.0 528.0 L 537.0 527.0 L 537.0 523.0 L 534.0 517.0 L 534.0 515.0 L 527.0 507.0 L 518.0 502.0 L 516.0 502.0 L 512.0 500.0 L 508.0 500.0 L 507.0 499.0 L 485.0 499.0 L 484.0 500.0 L 480.0 500.0 L 479.0 501.0 L 472.0 502.0 Z
    M 514.0 541.0 L 516.0 543.0 L 516.0 560.0 L 514.0 564.0 L 508.0 570.0 L 498.0 574.0 L 490.0 574.0 L 485.0 572.0 L 480.0 567.0 L 478.0 563.0 L 478.0 556.0 L 480.0 551.0 L 485.0 546.0 L 495.0 542.0 Z
    M 130.0 506.0 L 131.0 515.0 L 133.0 515.0 L 136.0 513.0 L 138.0 513.0 L 145.0 510.0 L 156.0 509.0 L 157.0 508.0 L 167.0 509.0 L 168.0 510.0 L 173.0 511.0 L 179.0 517.0 L 181.0 521.0 L 181.0 528.0 L 182.0 529.0 L 182.0 531.0 L 180.0 533.0 L 179.0 532.0 L 162.0 532.0 L 161.0 533.0 L 151.0 533.0 L 150.0 534.0 L 146.0 534.0 L 145.0 535.0 L 140.0 536.0 L 131.0 541.0 L 125.0 547.0 L 122.0 554.0 L 122.0 566.0 L 123.0 567.0 L 123.0 570.0 L 130.0 579.0 L 137.0 583.0 L 143.0 584.0 L 144.0 585.0 L 159.0 585.0 L 160.0 584.0 L 164.0 584.0 L 167.0 582.0 L 169.0 582.0 L 173.0 580.0 L 182.0 572.0 L 183.0 572.0 L 186.0 579.0 L 192.0 584.0 L 195.0 584.0 L 196.0 585.0 L 209.0 585.0 L 210.0 584.0 L 215.0 584.0 L 215.0 575.0 L 210.0 575.0 L 208.0 574.0 L 205.0 570.0 L 205.0 567.0 L 204.0 566.0 L 204.0 528.0 L 203.0 527.0 L 203.0 523.0 L 200.0 515.0 L 193.0 507.0 L 184.0 502.0 L 182.0 502.0 L 178.0 500.0 L 174.0 500.0 L 173.0 499.0 L 151.0 499.0 L 150.0 500.0 L 146.0 500.0 L 145.0 501.0 L 138.0 502.0 Z
    M 182.0 543.0 L 182.0 560.0 L 179.0 566.0 L 174.0 570.0 L 164.0 574.0 L 156.0 574.0 L 151.0 572.0 L 147.0 569.0 L 144.0 563.0 L 144.0 556.0 L 146.0 551.0 L 151.0 546.0 L 161.0 542.0 L 169.0 542.0 L 170.0 541.0 L 180.0 541.0 Z
    M 287.0 498.0 L 275.0 498.0 L 274.0 499.0 L 267.0 500.0 L 260.0 504.0 L 252.0 512.0 L 250.0 511.0 L 250.0 500.0 L 230.0 500.0 L 229.0 502.0 L 230.0 503.0 L 230.0 582.0 L 229.0 583.0 L 230.0 584.0 L 251.0 584.0 L 251.0 530.0 L 252.0 529.0 L 253.0 524.0 L 258.0 519.0 L 267.0 515.0 L 271.0 515.0 L 272.0 514.0 L 280.0 514.0 L 281.0 515.0 L 288.0 516.0 L 288.0 514.0 L 289.0 513.0 L 289.0 501.0 L 290.0 500.0 Z
    M 421.0 467.0 L 418.0 470.0 L 416.0 475.0 L 417.0 480.0 L 420.0 484.0 L 424.0 486.0 L 433.0 486.0 L 437.0 484.0 L 440.0 481.0 L 440.0 479.0 L 441.0 478.0 L 441.0 473.0 L 436.0 467.0 L 431.0 465.0 L 427.0 465.0 L 426.0 466.0 Z
    M 8.0 465.0 L 8.0 584.0 L 30.0 584.0 L 30.0 528.0 L 31.0 527.0 L 84.0 579.0 L 85.0 579.0 L 88.0 583.0 L 90.0 584.0 L 120.0 584.0 L 55.0 519.0 L 115.0 465.0 L 94.0 465.0 L 31.0 524.0 L 30.0 523.0 L 30.0 465.0 Z
    M 394.0 460.0 L 372.0 460.0 L 372.0 469.0 L 373.0 470.0 L 373.0 473.0 L 372.0 474.0 L 372.0 482.0 L 373.0 483.0 L 373.0 489.0 L 372.0 490.0 L 373.0 491.0 L 373.0 509.0 L 372.0 510.0 L 368.0 506.0 L 362.0 502.0 L 354.0 499.0 L 349.0 499.0 L 348.0 498.0 L 334.0 498.0 L 333.0 499.0 L 329.0 499.0 L 328.0 500.0 L 322.0 501.0 L 314.0 505.0 L 310.0 508.0 L 301.0 518.0 L 298.0 524.0 L 298.0 526.0 L 296.0 530.0 L 296.0 534.0 L 295.0 535.0 L 295.0 552.0 L 296.0 553.0 L 297.0 560.0 L 301.0 568.0 L 308.0 576.0 L 314.0 580.0 L 324.0 584.0 L 333.0 585.0 L 334.0 586.0 L 344.0 586.0 L 345.0 585.0 L 350.0 585.0 L 351.0 584.0 L 356.0 583.0 L 365.0 578.0 L 372.0 572.0 L 373.0 573.0 L 373.0 584.0 L 394.0 584.0 Z
    M 336.0 509.0 L 339.0 509.0 L 340.0 508.0 L 352.0 508.0 L 353.0 509.0 L 356.0 509.0 L 365.0 514.0 L 371.0 521.0 L 371.0 523.0 L 372.0 524.0 L 372.0 559.0 L 369.0 565.0 L 364.0 570.0 L 355.0 575.0 L 351.0 575.0 L 350.0 576.0 L 340.0 576.0 L 339.0 575.0 L 336.0 575.0 L 329.0 571.0 L 324.0 566.0 L 320.0 558.0 L 319.0 550.0 L 318.0 549.0 L 318.0 534.0 L 319.0 533.0 L 319.0 529.0 L 323.0 520.0 L 332.0 511.0 Z
    M 404.0 272.0 L 389.0 257.0 L 388.0 257.0 L 372.0 265.0 L 370.0 265.0 L 366.0 267.0 L 363.0 267.0 L 362.0 268.0 L 359.0 268.0 L 358.0 269.0 L 352.0 269.0 L 351.0 270.0 L 330.0 270.0 L 329.0 269.0 L 323.0 269.0 L 322.0 268.0 L 319.0 268.0 L 318.0 267.0 L 315.0 267.0 L 314.0 266.0 L 306.0 264.0 L 294.0 276.0 L 289.0 279.0 L 289.0 280.0 L 291.0 280.0 L 300.0 285.0 L 302.0 285.0 L 309.0 288.0 L 312.0 288.0 L 313.0 289.0 L 323.0 290.0 L 324.0 291.0 L 345.0 292.0 L 346.0 291.0 L 357.0 291.0 L 358.0 290.0 L 368.0 289.0 L 369.0 288.0 L 372.0 288.0 L 373.0 287.0 L 384.0 284.0 L 398.0 277.0 L 404.0 273.0 Z
    M 334.0 187.0 L 327.0 185.0 L 324.0 183.0 L 321.0 183.0 L 317.0 181.0 L 311.0 180.0 L 311.0 185.0 L 309.0 189.0 L 309.0 192.0 L 308.0 193.0 L 308.0 196.0 L 307.0 197.0 L 306.0 202.0 L 298.0 219.0 L 296.0 221.0 L 293.0 227.0 L 287.0 235.0 L 272.0 250.0 L 259.0 259.0 L 249.0 264.0 L 247.0 264.0 L 244.0 266.0 L 242.0 266.0 L 238.0 268.0 L 230.0 269.0 L 229.0 270.0 L 223.0 270.0 L 222.0 271.0 L 202.0 271.0 L 201.0 270.0 L 190.0 269.0 L 189.0 268.0 L 181.0 266.0 L 163.0 257.0 L 149.0 273.0 L 158.0 278.0 L 160.0 280.0 L 179.0 288.0 L 182.0 288.0 L 187.0 290.0 L 191.0 290.0 L 192.0 291.0 L 209.0 292.0 L 210.0 293.0 L 230.0 292.0 L 231.0 291.0 L 242.0 290.0 L 243.0 289.0 L 246.0 289.0 L 247.0 288.0 L 258.0 285.0 L 261.0 283.0 L 263.0 283.0 L 269.0 280.0 L 271.0 278.0 L 276.0 276.0 L 291.0 265.0 L 302.0 254.0 L 302.0 253.0 L 310.0 244.0 L 316.0 235.0 L 318.0 230.0 L 320.0 228.0 L 322.0 224.0 L 322.0 222.0 L 326.0 215.0 L 328.0 207.0 L 330.0 204.0 L 330.0 201.0 L 332.0 197.0 L 332.0 193.0 L 333.0 192.0 Z
    M 206.0 165.0 L 199.0 168.0 L 194.0 172.0 L 191.0 173.0 L 184.0 178.0 L 179.0 183.0 L 178.0 183.0 L 158.0 204.0 L 145.0 222.0 L 144.0 225.0 L 136.0 237.0 L 134.0 242.0 L 130.0 247.0 L 130.0 248.0 L 144.0 262.0 L 156.0 249.0 L 162.0 237.0 L 177.0 216.0 L 197.0 196.0 L 209.0 187.0 L 208.0 186.0 L 208.0 183.0 L 206.0 178.0 Z
    M 246.0 149.0 L 246.0 165.0 L 247.0 166.0 L 247.0 170.0 L 249.0 169.0 L 254.0 169.0 L 255.0 168.0 L 260.0 168.0 L 261.0 167.0 L 274.0 167.0 L 275.0 166.0 L 283.0 166.0 L 284.0 167.0 L 298.0 167.0 L 299.0 168.0 L 304.0 168.0 L 305.0 169.0 L 309.0 169.0 L 317.0 172.0 L 320.0 172.0 L 323.0 174.0 L 325.0 174.0 L 330.0 177.0 L 334.0 178.0 L 336.0 180.0 L 347.0 186.0 L 355.0 193.0 L 356.0 193.0 L 373.0 210.0 L 388.0 230.0 L 389.0 233.0 L 393.0 238.0 L 401.0 253.0 L 409.0 260.0 L 411.0 261.0 L 424.0 247.0 L 419.0 240.0 L 418.0 237.0 L 416.0 235.0 L 414.0 230.0 L 407.0 220.0 L 406.0 217.0 L 403.0 214.0 L 395.0 202.0 L 390.0 197.0 L 390.0 196.0 L 372.0 178.0 L 371.0 178.0 L 359.0 168.0 L 353.0 164.0 L 348.0 162.0 L 346.0 160.0 L 338.0 156.0 L 336.0 156.0 L 333.0 154.0 L 331.0 154.0 L 328.0 152.0 L 326.0 152.0 L 322.0 150.0 L 319.0 150.0 L 314.0 148.0 L 310.0 148.0 L 309.0 147.0 L 304.0 147.0 L 303.0 146.0 L 296.0 146.0 L 295.0 145.0 L 266.0 145.0 L 265.0 146.0 L 252.0 147.0 L 251.0 148.0 L 247.0 148.0 Z
    M 277.0 41.0 L 275.0 41.0 L 270.0 46.0 L 269.0 46.0 L 254.0 61.0 L 238.0 83.0 L 227.0 104.0 L 227.0 106.0 L 223.0 114.0 L 223.0 116.0 L 220.0 123.0 L 218.0 134.0 L 217.0 135.0 L 216.0 147.0 L 215.0 148.0 L 215.0 175.0 L 216.0 176.0 L 216.0 182.0 L 217.0 183.0 L 219.0 194.0 L 220.0 195.0 L 223.0 206.0 L 234.0 228.0 L 252.0 252.0 L 267.0 242.0 L 271.0 238.0 L 271.0 236.0 L 258.0 222.0 L 252.0 213.0 L 251.0 210.0 L 249.0 208.0 L 243.0 195.0 L 242.0 189.0 L 240.0 185.0 L 239.0 175.0 L 238.0 174.0 L 238.0 147.0 L 239.0 146.0 L 239.0 140.0 L 240.0 139.0 L 241.0 131.0 L 242.0 130.0 L 246.0 116.0 L 248.0 113.0 L 248.0 111.0 L 261.0 88.0 L 275.0 71.0 L 276.0 71.0 L 287.0 83.0 L 295.0 95.0 L 297.0 100.0 L 299.0 102.0 L 300.0 106.0 L 305.0 116.0 L 311.0 138.0 L 312.0 139.0 L 316.0 139.0 L 317.0 140.0 L 324.0 141.0 L 335.0 145.0 L 331.0 124.0 L 330.0 123.0 L 326.0 109.0 L 317.0 90.0 L 315.0 88.0 L 313.0 83.0 L 305.0 71.0 L 298.0 63.0 L 298.0 62.0 Z
    M 133.0 15.0 L 111.0 25.0 L 109.0 27.0 L 100.0 32.0 L 89.0 42.0 L 88.0 42.0 L 75.0 57.0 L 67.0 69.0 L 62.0 79.0 L 62.0 81.0 L 58.0 89.0 L 57.0 95.0 L 55.0 99.0 L 55.0 103.0 L 54.0 104.0 L 54.0 108.0 L 53.0 109.0 L 53.0 116.0 L 52.0 117.0 L 52.0 129.0 L 51.0 130.0 L 51.0 133.0 L 52.0 134.0 L 52.0 148.0 L 53.0 149.0 L 54.0 163.0 L 55.0 164.0 L 55.0 168.0 L 56.0 169.0 L 56.0 172.0 L 58.0 176.0 L 58.0 179.0 L 60.0 183.0 L 61.0 189.0 L 63.0 192.0 L 63.0 194.0 L 68.0 205.0 L 68.0 207.0 L 74.0 218.0 L 74.0 220.0 L 78.0 226.0 L 81.0 233.0 L 83.0 235.0 L 85.0 240.0 L 91.0 248.0 L 92.0 251.0 L 113.0 280.0 L 128.0 297.0 L 128.0 298.0 L 138.0 308.0 L 138.0 309.0 L 166.0 337.0 L 167.0 337.0 L 177.0 347.0 L 178.0 347.0 L 185.0 354.0 L 193.0 360.0 L 200.0 367.0 L 201.0 367.0 L 221.0 384.0 L 234.0 393.0 L 238.0 397.0 L 277.0 425.0 L 292.0 415.0 L 324.0 391.0 L 328.0 387.0 L 333.0 384.0 L 342.0 376.0 L 347.0 373.0 L 365.0 357.0 L 366.0 357.0 L 373.0 350.0 L 374.0 350.0 L 384.0 340.0 L 385.0 340.0 L 409.0 316.0 L 409.0 315.0 L 428.0 295.0 L 428.0 294.0 L 434.0 288.0 L 441.0 278.0 L 445.0 274.0 L 455.0 260.0 L 456.0 257.0 L 459.0 254.0 L 460.0 251.0 L 469.0 238.0 L 484.0 208.0 L 484.0 206.0 L 488.0 198.0 L 488.0 196.0 L 494.0 180.0 L 494.0 177.0 L 495.0 176.0 L 495.0 173.0 L 497.0 168.0 L 498.0 158.0 L 499.0 157.0 L 499.0 151.0 L 500.0 150.0 L 500.0 119.0 L 499.0 118.0 L 498.0 107.0 L 497.0 106.0 L 495.0 95.0 L 493.0 92.0 L 493.0 89.0 L 487.0 77.0 L 487.0 75.0 L 484.0 71.0 L 483.0 68.0 L 477.0 59.0 L 464.0 44.0 L 463.0 44.0 L 451.0 33.0 L 442.0 27.0 L 422.0 17.0 L 420.0 17.0 L 410.0 13.0 L 407.0 13.0 L 402.0 11.0 L 398.0 11.0 L 397.0 10.0 L 392.0 10.0 L 391.0 9.0 L 384.0 9.0 L 383.0 8.0 L 356.0 8.0 L 355.0 9.0 L 347.0 9.0 L 346.0 10.0 L 342.0 10.0 L 341.0 11.0 L 337.0 11.0 L 336.0 12.0 L 329.0 13.0 L 328.0 14.0 L 317.0 17.0 L 314.0 19.0 L 312.0 19.0 L 293.0 29.0 L 284.0 36.0 L 292.0 42.0 L 301.0 51.0 L 309.0 45.0 L 328.0 36.0 L 330.0 36.0 L 337.0 33.0 L 340.0 33.0 L 341.0 32.0 L 345.0 32.0 L 346.0 31.0 L 350.0 31.0 L 351.0 30.0 L 359.0 30.0 L 360.0 29.0 L 378.0 29.0 L 379.0 30.0 L 393.0 31.0 L 394.0 32.0 L 397.0 32.0 L 398.0 33.0 L 401.0 33.0 L 402.0 34.0 L 407.0 35.0 L 426.0 44.0 L 440.0 54.0 L 454.0 68.0 L 464.0 83.0 L 468.0 91.0 L 468.0 93.0 L 470.0 96.0 L 470.0 98.0 L 472.0 101.0 L 472.0 104.0 L 474.0 108.0 L 474.0 112.0 L 475.0 113.0 L 475.0 117.0 L 476.0 118.0 L 476.0 127.0 L 477.0 128.0 L 477.0 141.0 L 476.0 142.0 L 476.0 150.0 L 475.0 151.0 L 475.0 156.0 L 474.0 157.0 L 474.0 162.0 L 473.0 163.0 L 472.0 170.0 L 470.0 174.0 L 470.0 177.0 L 469.0 178.0 L 468.0 183.0 L 466.0 186.0 L 463.0 196.0 L 459.0 203.0 L 459.0 205.0 L 457.0 207.0 L 451.0 220.0 L 449.0 222.0 L 447.0 227.0 L 443.0 232.0 L 442.0 235.0 L 421.0 264.0 L 404.0 283.0 L 404.0 284.0 L 357.0 330.0 L 356.0 330.0 L 340.0 345.0 L 339.0 345.0 L 318.0 363.0 L 278.0 393.0 L 276.0 393.0 L 244.0 370.0 L 240.0 366.0 L 235.0 363.0 L 215.0 346.0 L 214.0 346.0 L 201.0 334.0 L 200.0 334.0 L 151.0 286.0 L 151.0 285.0 L 143.0 277.0 L 134.0 265.0 L 129.0 260.0 L 121.0 248.0 L 118.0 245.0 L 112.0 235.0 L 109.0 232.0 L 101.0 217.0 L 99.0 215.0 L 90.0 197.0 L 90.0 195.0 L 87.0 190.0 L 86.0 185.0 L 84.0 182.0 L 84.0 180.0 L 81.0 173.0 L 81.0 170.0 L 80.0 169.0 L 80.0 166.0 L 78.0 161.0 L 78.0 157.0 L 77.0 156.0 L 76.0 142.0 L 75.0 141.0 L 75.0 123.0 L 76.0 122.0 L 77.0 110.0 L 78.0 109.0 L 78.0 106.0 L 79.0 105.0 L 79.0 102.0 L 80.0 101.0 L 81.0 96.0 L 89.0 79.0 L 96.0 69.0 L 102.0 63.0 L 102.0 62.0 L 114.0 51.0 L 124.0 44.0 L 140.0 36.0 L 142.0 36.0 L 149.0 33.0 L 156.0 32.0 L 157.0 31.0 L 161.0 31.0 L 162.0 30.0 L 170.0 30.0 L 171.0 29.0 L 190.0 29.0 L 191.0 30.0 L 199.0 30.0 L 200.0 31.0 L 209.0 32.0 L 210.0 33.0 L 224.0 37.0 L 239.0 44.0 L 241.0 46.0 L 250.0 51.0 L 257.0 44.0 L 258.0 44.0 L 267.0 36.0 L 258.0 29.0 L 240.0 20.0 L 238.0 20.0 L 235.0 18.0 L 230.0 17.0 L 224.0 14.0 L 221.0 14.0 L 220.0 13.0 L 217.0 13.0 L 212.0 11.0 L 208.0 11.0 L 207.0 10.0 L 193.0 9.0 L 192.0 8.0 L 165.0 8.0 L 164.0 9.0 L 158.0 9.0 L 157.0 10.0 L 147.0 11.0 L 146.0 12.0 L 143.0 12.0 L 139.0 14.0 Z
  " fill="#000000" fill-rule="evenodd"/>
</svg>
